<svg id="benefit_3"  xmlns="http://www.w3.org/2000/svg" viewBox="5 5 180 180">
<defs>
    <style>.cls-benefit_3{fill:#70994e;}</style>
  </defs>
  <title>Cloud Connected</title>
    <!-- directory-cloud -->
   <path
    class="cls-benefit_3"
    d="M16 176h40v-40H16v40zm8-32h24v24H24v-24zm52 32h40v-40H76v40zm8-32h24v24H84v-24zm52-8v40h40v-40h-40zm32 32h-24v-24h24v24zM40 128h-8V92h60V80h8v12h60v36h-8v-28h-52v28h-8v-28H40v28zm33.3-56h45.5c9.5 0 17.3-7.9 17.3-17.7 0-5.9-2.9-11.4-7.6-14.7v-1c0-12.5-9.9-22.6-22-22.6-6.6 0-12.9 3.1-17 8.3-1.2-.3-2.5-.4-3.8-.4-8.3 0-15.1 5.3-17.1 12.7C61.3 38.7 56 45.9 56 54.3 56 64.1 63.7 72 73.3 72zm-1-28l3.5-.2.2-3.5c.3-4.8 4.4-8.4 9.6-8.4 1.3 0 2.5.3 3.7.8l3.3 1.5 1.8-3.1c2.6-4.4 7-7 12-7 7.7 0 14 6.6 14 14.6 0 .8-.1 1.7-.2 2.5l-.5 3 2.8 1.3c3.4 1.6 5.5 5 5.5 8.9 0 5.4-4.2 9.7-9.3 9.7H73.3c-5.1 0-9.3-4.4-9.3-9.7 0-5.5 3.7-10.1 8.3-10.4z"/>
</svg>