<svg id="benefit_2" xmlns="http://www.w3.org/2000/svg" viewBox="5 5 180 180">
  <defs>
    <style>.cls-benefit_2{fill:#70994e;}</style>
  </defs>
  <title>Containerized</title>
  <!-- cube-filled -->
  <path
    class="cls-benefit_4"
    d="M96 19.7L24 49.3v89.2l72 33.9 72-33.9V49.3L96 19.7zm58.1 32.5L128.9 64 96 51.7 63.1 64.1 37.9 52.2 96 28.3l58.1 23.9zM92 105.5l-18.5-9.2L92 88.4v17.1zm0 28l-18.5-9.2 18.5-7.9v17.1zm8-17.1l18.5 7.9-18.5 9.2v-17.1zm0-10.9V88.4l18.5 7.9-18.5 9.2zm-4-25.9L73.2 68.8 96 60.3l22.8 8.6L96 79.6zM32 58.3l52.3 24.6-29.8 12.8 30.2 15.1-30.2 12.9L92 142.5v19.2l-60-28.2V58.3zm68 103.4v-19.2l37.5-18.8-30.2-12.9 30.2-15.1-29.8-12.8L160 58.3v75.2l-60 28.2z"/>
</svg>