<svg id="benefit_4" xmlns="http://www.w3.org/2000/svg" viewBox="5 5 180 180">
<defs>
<!-- <style>.cls-benefit_4{fill:#4f8050;}</style> -->
    <style>.cls-benefit_4{fill:#70994e;}</style>
  </defs>
  <title>Flexible</title>
  <!-- puzzle-binary -->
  <path
    class="cls-benefit_4"
    d="M112.86 116c-4.152 0-7.67 1.856-9.818 5.177-2.1 3.176-3.322 7.865-3.322 12.603 0 11.284 5.032 18.22 13.189 18.22 4.103 0 7.669-1.856 9.77-5.178 2.149-3.37 3.321-7.815 3.321-12.847 0-10.99-5.08-17.975-13.14-17.975zm.049 29.992c-3.42 0-5.324-4.299-5.324-12.163 0-7.473 1.954-11.821 5.275-11.821 3.37 0 5.276 4.348 5.276 11.967 0 7.67-1.905 12.017-5.227 12.017zm35.447-.44H155v6.106h-21.64v-6.106h7.425v-18.317c-1.66.634-4.347 1.025-7.23.976v-5.52c5.081-.488 7.523-2.344 8.451-6.35h6.35v29.211zM142.86 68c-4.152 0-7.67 1.856-9.818 5.177-2.1 3.176-3.322 7.865-3.322 12.603 0 11.284 5.032 18.22 13.189 18.22 4.103 0 7.669-1.856 9.77-5.178 2.149-3.37 3.321-7.815 3.321-12.847C156 74.985 150.92 68 142.86 68zm.049 29.992c-3.42 0-5.324-4.299-5.324-12.163 0-7.473 1.954-11.821 5.275-11.821 3.37 0 5.276 4.348 5.276 11.967 0 7.67-1.905 12.017-5.227 12.017zM53.14 84c-4.152 0-7.67 1.856-9.818 5.177C41.22 92.353 40 97.042 40 101.78 40 113.064 45.031 120 53.188 120c4.104 0 7.67-1.856 9.77-5.178 2.15-3.37 3.322-7.815 3.322-12.847C66.28 90.985 61.2 84 53.14 84zm.048 29.992c-3.419 0-5.323-4.299-5.323-12.163 0-7.473 1.953-11.821 5.275-11.821 3.37 0 5.275 4.348 5.275 11.967 0 7.67-1.904 12.017-5.227 12.017zM63.92 72H42.28v-6.106h7.426V47.576c-1.662.635-4.348 1.026-7.23.977v-5.52c5.08-.488 7.522-2.344 8.45-6.35h6.35v29.211h6.644V72zm63.709-56l-41.632.04H16V176h20c6.64 0 12.043-5.411 12.043-12.062 0-2.603-.815-5.082-2.386-7.206a8.035 8.035 0 0 1-1.636-4.887c0-4.462 3.618-8.093 8.064-8.093s8.064 3.63 8.064 8.093a8.076 8.076 0 0 1-1.665 4.925 11.981 11.981 0 0 0-2.356 7.168c0 6.65 5.402 12.062 12.043 12.062H176V16.04h-17v.015c-6.454.159-11.47 5.286-11.47 11.817 0 2.602.819 5.08 2.394 7.201a7.975 7.975 0 0 1 1.637 4.863c0 4.446-3.631 8.064-8.093 8.064s-8.093-3.618-8.093-8.064c0-1.772.566-3.454 1.666-4.9a11.944 11.944 0 0 0 2.365-7.164c0-6.634-5.172-11.831-11.774-11.831M80.04 104v64h-11.87c-2.23 0-4.043-1.822-4.043-4.062 0-.879.273-1.714.764-2.378a15.968 15.968 0 0 0 3.257-9.715c0-8.873-7.206-16.093-16.064-16.093-8.857 0-16.064 7.22-16.064 16.093 0 3.54 1.126 6.9 3.23 9.678a4.03 4.03 0 0 1 .792 2.415c0 2.24-1.814 4.062-4.043 4.062H24V24.04h56.041V72c0 6.787 5.197 12.103 11.831 12.103 2.602 0 5.08-.819 7.202-2.395 1.026-.78 2.7-1.708 4.863-1.708 4.446 0 8.063 3.589 8.063 8s-3.617 8-8.063 8c-2.023 0-3.659-.464-4.9-1.408a11.938 11.938 0 0 0-7.165-2.366c-6.634 0-11.831 5.172-11.831 11.774zm8 64v-64c0-2.222 1.575-3.774 3.831-3.774.871 0 1.701.274 2.36.762 2.627 1.999 5.893 3.012 9.705 3.012C112.794 104 120 96.822 120 88s-7.206-16-16.063-16c-3.475 0-6.832 1.155-9.667 3.312a3.996 3.996 0 0 1-2.398.79c-2.148 0-3.831-1.802-3.831-4.102V24.039l39.59-.039v.04c2.223 0 3.775 1.576 3.775 3.832 0 .871-.273 1.7-.761 2.36a15.906 15.906 0 0 0-3.27 9.704c0 8.858 7.219 16.064 16.093 16.064s16.093-7.206 16.093-16.064c0-3.535-1.13-6.89-3.24-9.667a3.993 3.993 0 0 1-.79-2.397c0-2.256 1.551-3.831 3.773-3.831H168V168H88.041z"/>
</svg>