<svg id="kanto_logo" data-name="Kanto Logo" xmlns="http://www.w3.org/2000/svg" viewBox="0 0 200 50">
  <defs>
    <style>.cls-kanto_logo{fill:#fff;}</style>
  </defs>
  <title>Eclipse Kanto</title>
  <g transform="translate(0.0,50.0) scale(0.025,-0.025)">
  <path class="cls-kanto_logo" d="M370 1754 c-168 -290 -306 -529 -308 -533 -2 -6 557 -986 604 -1059 l14 -22 619 0 619 0 255 442 c327 569 357 622 357 635 0 6 -137 246 -305 534 l-304 524 -623 2 -623 2 -305 -525z m780 352 c0 -2 -72 -129 -161 -281 -88 -152 -159 -279 -157 -281 2 -2 33 14 68 35 255 151 900 521 908 521 9 0 182 -293 182 -308 0 -4 -219 -133 -487 -287 -267 -154 -485 -284 -485 -290 1 -8 930 -553 966 -568 7 -2 -140 -275 -170 -316 -2 -2 -222 123 -490 278 -268 154 -490 279 -492 276 -2 -2 66 -125 152 -274 86 -148 156 -272 156 -275 0 -4 -80 -6 -178 -6 l-179 0 -253 438 c-139 240 -253 442 -253 448 0 6 114 210 253 452 l254 442 183 0 c101 0 183 -2 183 -4z"/>
  <path class="cls-kanto_logo" d="M2890 1240 l0 -720 110 0 110 0 0 236 0 235 29 -3 c26 -3 50 -31 193 -233 l163 -230 128 -3 c70 -1 127 0 127 3 0 3 -86 128 -191 276 -189 268 -191 271 -172 292 10 12 96 106 191 208 94 103 172 190 172 193 0 3 -60 6 -134 6 l-135 0 -158 -170 c-130 -140 -163 -170 -185 -170 l-28 0 0 400 0 400 -110 0 -110 0 0 -720z"/>
  <path class="cls-kanto_logo" d="M5965 1738 c-3 -18 -12 -77 -20 -132 -7 -54 -16 -100 -19 -103 -3 -3 -40 -15 -83 -27 l-78 -22 0 -64 0 -65 82 -3 81 -3 4 -292 c5 -323 11 -360 71 -433 51 -61 92 -74 245 -74 l133 0 -3 67 -3 67 -80 24 c-144 43 -145 45 -145 381 l0 260 118 3 117 3 3 88 3 87 -121 0 -120 0 0 135 0 135 -90 0 -89 0 -6 -32z"/>
  <path class="cls-kanto_logo" d="M4165 1510 c-102 -9 -236 -35 -267 -51 -14 -8 -18 -23 -18 -74 l0 -65 37 0 c21 0 121 5 224 11 276 16 309 1 309 -137 l0 -74 -193 0 c-228 0 -277 -10 -336 -69 -53 -53 -71 -113 -71 -234 0 -119 12 -164 58 -217 49 -58 102 -82 193 -88 91 -5 158 12 273 69 43 22 80 38 82 36 1 -1 12 -24 23 -50 l20 -47 86 0 86 0 -3 393 c-3 385 -3 393 -26 442 -64 139 -190 180 -477 155z m285 -635 l0 -105 -27 -11 c-102 -41 -176 -61 -233 -66 -59 -5 -69 -3 -93 18 -22 19 -29 35 -34 79 -8 81 10 137 50 155 27 13 170 29 300 34 l37 1 0 -105z"/>
  <path class="cls-kanto_logo" d="M5225 1486 c-33 -12 -86 -39 -117 -59 l-58 -37 -14 33 c-7 19 -17 43 -20 55 -7 20 -14 22 -92 22 l-84 0 0 -490 0 -490 105 0 105 0 0 360 0 359 43 25 c99 58 244 83 304 53 61 -32 63 -47 63 -441 l0 -356 111 0 110 0 -3 378 c-4 367 -4 379 -27 435 -30 75 -73 124 -136 153 -70 33 -204 33 -290 0z"/>
  <path class="cls-kanto_logo" d="M6820 1500 c-96 -13 -187 -63 -227 -124 -43 -64 -62 -128 -75 -263 -13 -126 -2 -288 26 -380 49 -159 197 -231 451 -220 239 10 340 82 380 274 17 81 20 318 4 413 -24 150 -96 243 -218 280 -76 24 -242 34 -341 20z m287 -206 c52 -39 66 -99 67 -279 1 -180 -10 -238 -54 -280 -33 -31 -82 -45 -165 -45 -135 0 -193 40 -215 146 -17 81 -8 346 13 394 33 75 70 90 214 87 96 -2 116 -5 140 -23z"/>
</svg>