<svg id="Edge" xmlns="http://www.w3.org/2000/svg" xmlns:xlink="http://www.w3.org/1999/xlink" viewBox="0 0 352.52 103.19"><defs><style>.cls-1,.cls-2,.cls-3{fill-rule:evenodd;}.cls-1{fill:url(#Unbenannter_Verlauf_6);}.cls-2,.cls-4{fill:#334c2e;}.cls-3{fill:#fff;}</style><linearGradient id="Unbenannter_Verlauf_6" x1="-3" y1="104.17" x2="97" y2="20.17" gradientUnits="userSpaceOnUse"><stop offset="0" stop-color="#476e40"/><stop offset="1" stop-color="#5e9e56"/></linearGradient></defs><polygon class="cls-1" points="89.37 0 29.79 0 0 51.6 29.79 103.19 89.37 103.19 119.16 51.6 89.37 0"/><polygon class="cls-2" points="89.37 103.19 40.01 103.11 10.27 51.6 37.31 36 84.28 8.89 114.04 60.45 89.37 103.19"/><polygon class="cls-2" points="42.22 46.59 29.41 39.23 52.52 8.89 68.04 35.77 42.22 46.59"/><polygon class="cls-3" points="93.03 24.05 84.28 8.89 36.51 36.46 52.43 8.89 34.92 8.89 10.27 51.6 34.92 94.3 52.43 94.3 36.51 66.73 84.28 94.3 93.03 79.14 45.3 51.6 93.03 24.05"/><path class="cls-4" d="M136.3,15.8h10.27V54.14h2.93l15-16.11h13.3L159,58.35l18.82,26.7H165.5l-16-22.5h-2.93v22.5H136.3Z"/><path class="cls-4" d="M182.24,68.58c0-6.93,4-12.49,13-12.49,0,0,15.93.09,15.93,0s.09-4,0-4.07c0-5.16-2.52-6.33-6.64-6.33-4.92,0-15.22.63-20.81,1V40.11c6.23-2.18,13.21-2.91,22-3,9.11-.06,15.75,3.62,15.75,14.57V85.05h-8l-2.28-5.36c-.39.65-8.74,6-16.24,5.89-8.11-.16-12.74-5.59-12.74-12.22Zm15,8.28c5.87,0,14-4,14-4V62.81l-14.39,1.07c-3.46.33-4.32,2.8-4.32,5.14v3.06C192.51,76.12,194.66,76.86,197.21,76.86Z"/><path class="cls-4" d="M229.71,38h8L240,43.21c4.53-3,8.63-6,15.8-6,10.38,0,14.21,7.45,14.21,16V85.05H259.73v-32c0-5.1-2.58-7.14-6.2-7.14-5.75,0-8.74,1.46-13.54,4.43V85.05H229.71Z"/><path class="cls-4" d="M274.25,40.15l8-2.21,1.9-13.11h8.37V37.94h11.68v8.41H292.54V67c0,7.21,1.76,8.8,4.4,9.63,0,0,6,1.86,6.64,1.86V85h-9.71c-6.92,0-11.6-4.31-11.6-16.8V46.35h-8Z"/><path class="cls-4" d="M331.33,37.58c16.07,0,21.19,5.94,21.19,24.62,0,17.44-5,23.29-21.19,23.29S310.15,79,310.15,62.2C310.15,43,315.61,37.58,331.33,37.58Zm0,39.19c7.92,0,10.92-1.06,10.92-14.57,0-14.5-2.45-15.89-10.92-15.89-8.27,0-10.91,1.36-10.91,15.89C320.42,75.64,323.82,76.77,331.33,76.77Z"/></svg>