<?xml version="1.0" encoding="UTF-8" standalone="no"?>
<svg
   id="Edge"
   viewBox="0 0 240.00001 240"
   version="1.1"
   docname="Logo_EclipseEdgeKanto_horizontal.svg"
   width="240"
   height="240"
   xmlns="http://www.w3.org/2000/svg"
   xmlns:svg="http://www.w3.org/2000/svg">
  <defs
     id="defs9">
    <style
       id="style2">.cls-1,.cls-2,.cls-3{fill-rule:evenodd;}.cls-1{fill:url(#Unbenannter_Verlauf_6);}.cls-2,.cls-4{fill:#334c2e;}.cls-3{fill:#fff;}</style>
    <linearGradient
       id="Unbenannter_Verlauf_6"
       x1="-3"
       y1="104.17"
       x2="97"
       y2="20.17"
       gradientUnits="userSpaceOnUse">
      <stop
         offset="0"
         stop-color="#476e40"
         id="stop4" />
      <stop
         offset="1"
         stop-color="#5e9e56"
         id="stop6" />
    </linearGradient>
  </defs>
  <g
     id="g1104"
     transform="matrix(1.2850924,0,0,1.2427954,-19.181887,-11.807974)">
    <polygon
       class="cls-1"
       points="29.79,0 0,51.6 29.79,103.19 89.37,103.19 119.16,51.6 89.37,0 "
       id="polygon11"
       style="fill:url(#Unbenannter_Verlauf_6)"
       transform="matrix(1.0954656,0,0,1.0954656,44.179189,22.034465)" />
    <polygon
       class="cls-2"
       points="40.01,103.11 10.27,51.6 37.31,36 84.28,8.89 114.04,60.45 89.37,103.19 "
       id="polygon13"
       transform="matrix(1.0954656,0,0,1.0954656,44.179189,22.034465)" />
    <polygon
       class="cls-2"
       points="29.41,39.23 52.52,8.89 68.04,35.77 42.22,46.59 "
       id="polygon15"
       transform="matrix(1.0954656,0,0,1.0954656,44.179189,22.034465)" />
    <polygon
       class="cls-3"
       points="84.28,8.89 36.51,36.46 52.43,8.89 34.92,8.89 10.27,51.6 34.92,94.3 52.43,94.3 36.51,66.73 84.28,94.3 93.03,79.14 45.3,51.6 93.03,24.05 "
       id="polygon17"
       transform="matrix(1.0954656,0,0,1.0954656,44.179189,22.034465)" />
  </g>
  <g
     id="g868"
     transform="matrix(0.77236147,0,0,0.77236147,69.401751,89.07766)">
    <path
       class="cls-4"
       d="m -41.011844,105.05698 h 10.27 v 38.34 h 2.93 l 15,-16.11 H 0.48815557 l -18.79999957,20.32 18.81999957,26.7 H -11.811844 l -16,-22.5 h -2.93 v 22.5 h -10.27 z"
       id="path19" />
    <path
       class="cls-4"
       d="m 4.9281556,157.83698 c 0,-6.93 4,-12.49 13.0000004,-12.49 0,0 15.93,0.09 15.93,0 0,-0.09 0.09,-4 0,-4.07 0,-5.16 -2.52,-6.33 -6.64,-6.33 -4.92,0 -15.22,0.63 -20.8100004,1 v -6.58 c 6.2300004,-2.18 13.2100004,-2.91 22.0000004,-3 9.11,-0.06 15.75,3.62 15.75,14.57 v 33.37 h -8 l -2.28,-5.36 c -0.39,0.65 -8.74,6 -16.24,5.89 -8.1100004,-0.16 -12.7400004,-5.59 -12.7400004,-12.22 z m 15.0000004,8.28 c 5.87,0 14,-4 14,-4 v -10.05 l -14.39,1.07 c -3.46,0.33 -4.32,2.8 -4.32,5.14 v 3.06 c -0.02,4.04 2.13,4.78 4.68,4.78 z"
       id="path21" />
    <path
       class="cls-4"
       d="m 52.398156,127.25698 h 8 l 2.29,5.21 c 4.53,-3 8.63,-6 15.8,-6 10.38,0 14.21,7.45 14.21,16 v 31.84 h -10.28 v -32 c 0,-5.1 -2.58,-7.14 -6.2,-7.14 -5.75,0 -8.74,1.46 -13.54,4.43 v 34.71 h -10.28 z"
       id="path23" />
    <path
       class="cls-4"
       d="m 96.938156,129.40698 8.000004,-2.21 1.9,-13.11 h 8.37 v 13.11 h 11.68 v 8.41 h -11.66 v 20.65 c 0,7.21 1.76,8.8 4.4,9.63 0,0 6,1.86 6.64,1.86 v 6.51 h -9.71 c -6.92,0 -11.6,-4.31 -11.6,-16.8 v -21.85 h -8.000004 z"
       id="path25" />
    <path
       class="cls-4"
       d="m 154.01816,126.83698 c 16.07,0 21.19,5.94 21.19,24.62 0,17.44 -5,23.29 -21.19,23.29 -16.19,0 -21.18,-6.49 -21.18,-23.29 0,-19.2 5.46,-24.62 21.18,-24.62 z m 0,39.19 c 7.92,0 10.92,-1.06 10.92,-14.57 0,-14.5 -2.45,-15.89 -10.92,-15.89 -8.27,0 -10.91,1.36 -10.91,15.89 0,13.44 3.4,14.57 10.91,14.57 z"
       id="path27" />
  </g>
</svg>
