<?xml version="1.0" encoding="utf-8"?>
<!-- Generator: Adobe Illustrator 25.4.1, SVG Export Plug-In . SVG Version: 6.00 Build 0)  -->
<svg version="1.1" id="Calque_1" xmlns="http://www.w3.org/2000/svg" xmlns:xlink="http://www.w3.org/1999/xlink" x="0px" y="0px"
	 viewBox="0 0 258.2 165.4" style="enable-background:new 0 0 258.2 165.4;" xml:space="preserve">
<style type="text/css">
	.st0{fill:#FFFFFF;}
</style>
<g>
	<rect id="XMLID_24_" x="52.7" y="37" class="st0" width="17.7" height="19.6"/>
	<path id="XMLID_23_" class="st0" d="M85.5,141.7H70.4V73.3c0-2.5-2-4.6-4.6-4.6H47.4v18.3h4.8v54.5H37.7v18.2h63.5
		C94.4,155.4,88.9,149.1,85.5,141.7"/>
	<path id="XMLID_22_" class="st0" d="M255,87.1V68.8h-31.8V37h-18.2v31.8h-30.8c6.8,4.5,12.3,10.8,15.7,18.3h15.1v36.4
		c0,20,16.4,36.4,36.4,36.4H255v-18.2h-13.6c-10,0-18.2-8.2-18.2-18.2V87.1C223.3,87.1,255,87.1,255,87.1z"/>
	<path id="XMLID_19_" class="st0" d="M146.8,68.8h-18.2c-20,0-36.4,16.4-36.4,36.5v18.2c0,20,16.4,36.4,36.4,36.4h12.9h5.3
		c20,0,36.4-16.4,36.4-36.4v-18.2C183.2,85.1,166.8,68.8,146.8,68.8 M165,123.5c0,10-8.2,18.2-18.2,18.2h-18.2
		c-10,0-18.2-8.2-18.2-18.2v-18.2c0-10,8.2-18.2,18.2-18.2h18.2c10,0,18.2,8.2,18.2,18.2L165,123.5L165,123.5z"/>
</g>
<path id="XMLID_16_" class="st0" d="M7.4,149.2c0-6.2,3.2-9.3,9.5-9.3c0.8,0,1.7,0.1,2.5,0.2v13.5c2.9,0,4.3-2.1,4.3-6.3
	c0-2.1-0.2-4.1-0.6-6.2h4.1c0.4,1.8,0.6,4,0.6,6.6c0,7.4-3.5,11.1-10.4,11.1C10.7,158.8,7.4,155.6,7.4,149.2z M15.8,153.7V145h-0.2
	c-2.8,0-4.2,1.4-4.2,4.3C11.4,152,12.9,153.4,15.8,153.7z"/>
<path id="XMLID_14_" class="st0" d="M27.2,121c0.4,1.7,0.6,3.4,0.6,5.2c0,7.2-3.5,10.9-10.6,10.9c-6.5,0-9.8-3.6-9.8-10.9
	c0-1.8,0.2-3.6,0.6-5.2H12c-0.4,1.7-0.6,3.3-0.6,4.9c0,4.1,1.9,6.1,5.7,6.1c4.3,0,6.5-2,6.5-6.1c0-1.6-0.2-3.2-0.6-4.9H27.2z"/>
<path id="XMLID_12_" class="st0" d="M0,112.5h27.8v5.1H0V112.5z"/>
<path id="XMLID_9_" class="st0" d="M0,102.5h4.1v5.1H0V102.5z M7.4,102.5h20.4v5.1H7.4V102.5z"/>
<path id="XMLID_6_" class="st0" d="M8.2,97.6c-0.6-2.7-0.8-5.6-0.8-8.6c0-6.9,3.2-10.4,9.7-10.4c7.1,0,10.7,3.2,10.7,9.7
	c0,1.4-0.3,2.8-1,4.2h8.3v5.1L8.2,97.6L8.2,97.6z M22.4,92.5c0.7-1.3,1.1-2.7,1.1-4.1c0-3.1-2.2-4.6-6.5-4.6c-3.7,0-5.5,1.7-5.5,5.1
	c0,1.5,0.1,2.7,0.3,3.6H22.4z"/>
<path id="XMLID_4_" class="st0" d="M26.8,74.8h-4.3c0.9-2.3,1.4-4.9,1.4-7.8c0-2.2-0.7-3.3-2.1-3.3c-1.4,0-2,0.7-2,2.2v3.7
	c0,4.1-2,6.2-6.1,6.2c-4.3,0-6.4-3-6.4-9.1c0-2.6,0.4-5,1.2-7.2h4.3c-0.9,2.3-1.4,4.7-1.4,7.4c0,2.8,0.7,4.2,2.1,4.2
	c1.4,0,2-0.8,2-2.4v-3.3c0-4.5,2-6.8,6.1-6.8c4.3,0,6.4,2.9,6.4,8.7C28,70,27.6,72.5,26.8,74.8z"/>
<path id="XMLID_1_" class="st0" d="M7.4,46.3c0-6.2,3.2-9.3,9.5-9.3c0.8,0,1.7,0.1,2.5,0.2v13.5c2.9,0,4.3-2.1,4.3-6.3
	c0-2.1-0.2-4.1-0.6-6.2h4.1c0.4,1.8,0.6,4,0.6,6.6c0,7.4-3.5,11.1-10.4,11.1C10.7,55.8,7.4,52.6,7.4,46.3z M15.8,50.7V42h-0.2
	c-2.8,0-4.2,1.4-4.2,4.3C11.4,49,12.9,50.5,15.8,50.7z"/>
<circle class="st0" cx="172" cy="29.3" r="17.3"/>
<circle class="st0" cx="129.6" cy="46.8" r="7.7"/>
<circle class="st0" cx="108.4" cy="21.8" r="9.9"/>
<rect x="118.7" y="17.5" transform="matrix(0.7658 -0.6431 0.6431 0.7658 5.0396 85.7436)" class="st0" width="3.1" height="36.8"/>
<rect x="130.2" y="36.5" transform="matrix(0.9158 -0.4017 0.4017 0.9158 -2.4828 64.2735)" class="st0" width="43.6" height="3.1"/>
</svg>
